<?xml version="1.0" standalone="no"?><!DOCTYPE svg PUBLIC "-//W3C//DTD SVG 1.1//EN" "http://www.w3.org/Graphics/SVG/1.1/DTD/svg11.dtd"><svg t="1650444698593" class="icon" viewBox="0 0 2633 1024" version="1.1" xmlns="http://www.w3.org/2000/svg" p-id="2022" xmlns:xlink="http://www.w3.org/1999/xlink" width="82.28125" height="32"><defs><style type="text/css">@font-face { font-family: feedback-iconfont; src: url("//at.alicdn.com/t/font_1031158_u69w8yhxdu.woff2?t=1630033759944") format("woff2"), url("//at.alicdn.com/t/font_1031158_u69w8yhxdu.woff?t=1630033759944") format("woff"), url("//at.alicdn.com/t/font_1031158_u69w8yhxdu.ttf?t=1630033759944") format("truetype"); }
</style></defs><path d="M675.84 587.849143c0-2.925714 1.462857-4.388571 5.851429-5.851429 0 4.388571-1.462857 4.388571-5.851429 5.851429z m-38.034286-16.091429c1.462857 4.388571 1.462857 5.851429 2.925715 8.777143 2.925714 4.388571-2.925714 2.925714-5.851429 2.925714-4.388571 0-5.851429-1.462857-4.388571-5.851428 1.462857-2.925714 4.388571-4.388571 7.314285-5.851429z m23.405715 14.628572c-10.24 0-1.462857-13.165714 1.462857-24.868572 0-2.925714 1.462857-4.388571 1.462857-7.314285 4.388571 0 8.777143 4.388571 10.24 5.851428 1.462857 1.462857 1.462857 4.388571 1.462857 7.314286 1.462857 7.314286 7.314286 8.777143-1.462857 14.628571-4.388571 2.925714-8.777143 4.388571-13.165714 4.388572z m32.182857-1.462857c-5.851429 0-8.777143-5.851429-5.851429-8.777143 1.462857-1.462857 8.777143-7.314286 11.702857-7.314286 0 2.925714-2.925714 16.091429-5.851428 16.091429z m-51.2-19.017143c2.925714 0 4.388571 1.462857 7.314285 2.925714 1.462857 0 5.851429 2.925714 5.851429 4.388571 0 5.851429-1.462857 7.314286-2.925714 11.702858-4.388571 0-4.388571-2.925714-5.851429-7.314286-2.925714-4.388571-4.388571-7.314286-4.388571-11.702857z m58.514285 16.091428c0-8.777143 1.462857-13.165714 4.388572-23.405714 1.462857-8.777143 2.925714-11.702857 13.165714-11.702857 2.925714 0 10.24 10.24 2.925714 21.942857-1.462857 4.388571-13.165714 13.165714-20.48 13.165714zM602.697143 558.592c4.388571 0 7.314286 0 11.702857 1.462857 0 2.925714-1.462857 7.314286-2.925714 10.24-7.314286-4.388571-5.851429-5.851429-8.777143-11.702857z m52.662857-8.777143c1.462857 0 2.925714 1.462857 4.388571 2.925714 0 4.388571-1.462857 7.314286-1.462857 10.24h-1.462857c-1.462857-4.388571-1.462857-7.314286-1.462857-13.165714z m-35.108571 2.925714c5.851429 0 13.165714-2.925714 13.165714 11.702858 0 2.925714-8.777143 13.165714-11.702857 13.165714-1.462857 0-1.462857-1.462857-2.925715-2.925714-1.462857 0-2.925714-1.462857-4.388571-1.462858 0-1.462857 2.925714-10.24 4.388571-11.702857 4.388571-1.462857 7.314286 1.462857 1.462858-8.777143z m77.531428 8.777143c-1.462857-2.925714-2.925714-2.925714-2.925714-8.777143 0-4.388571 10.24-10.24 7.314286 4.388572 0 2.925714-1.462857 4.388571-4.388572 4.388571z m38.034286-39.497143c4.388571 5.851429 5.851429 27.794286 1.462857 38.034286-1.462857 2.925714-5.851429 10.24-8.777143 10.24 11.702857-23.405714 7.314286-21.942857 7.314286-48.274286zM661.211429 543.963429c-7.314286 0-16.091429-11.702857-16.091429-20.48 0-13.165714 0-7.314286 2.925714-14.628572 2.925714 0 2.925714 0 4.388572 2.925714 8.777143 7.314286 7.314286 4.388571 14.628571 5.851429 0 7.314286-4.388571 21.942857-5.851428 26.331429z m45.348571-1.462858c-4.388571 0-14.628571 1.462857-14.628571-10.24 0-7.314286 4.388571-16.091429 5.851428-21.942857 5.851429 1.462857 7.314286 5.851429 14.628572 7.314286 0 5.851429-1.462857 8.777143-1.462858 13.165714 0 2.925714 0 4.388571-1.462857 5.851429-1.462857 2.925714-2.925714 2.925714-2.925714 5.851428z m-87.771429 2.925715c-7.314286-1.462857-13.165714-10.24-13.165714-20.48 0-14.628571 1.462857-14.628571 5.851429-17.554286 2.925714 4.388571 2.925714 5.851429 5.851428 7.314286 2.925714 2.925714 4.388571 2.925714 10.24 2.925714l-8.777143 27.794286z m7.314286-30.72c-5.851429 0-16.091429-13.165714-5.851428-20.48 5.851429-4.388571 8.777143-4.388571 14.628571-4.388572 0 5.851429-4.388571 14.628571-5.851429 19.017143 0 2.925714 0 5.851429-2.925714 5.851429z m106.788572-13.165715c-1.462857-7.314286 4.388571-13.165714 8.777142-14.628571 2.925714 4.388571-1.462857 5.851429-4.388571 8.777143-2.925714 1.462857-1.462857 2.925714-4.388571 5.851428z m-14.628572-11.702857l-4.388571 17.554286c0 2.925714-1.462857 5.851429-4.388572 5.851429-4.388571 0-11.702857-10.24-1.462857-20.48 1.462857-2.925714 14.628571-13.165714 10.24-2.925715z m-51.2 23.405715c-4.388571 0-5.851429-1.462857-8.777143-4.388572-4.388571-8.777143-5.851429-14.628571 2.925715-20.48 0 0 14.628571-8.777143 14.628571-1.462857l-1.462857 4.388571-4.388572 16.091429c0 2.925714 0 5.851429-2.925714 5.851429z m38.034286-76.068572c4.388571 0 8.777143 4.388571 11.702857 7.314286l4.388571 4.388571c4.388571 5.851429 10.24 11.702857 13.165715 17.554286 2.925714 4.388571 4.388571 8.777143 5.851428 14.628571-11.702857 5.851429-13.165714 14.628571-14.628571 27.794286-1.462857 11.702857 0 29.257143 0 40.96l-1.462857-1.462857s0-1.462857-1.462857-1.462857c-1.462857-1.462857-1.462857-1.462857-1.462858-4.388572h-11.702857c0-5.851429 1.462857-11.702857 2.925715-17.554285 2.925714-11.702857 5.851429-7.314286 5.851428-11.702857 0-4.388571-4.388571 1.462857 2.925714-17.554286 0-1.462857 1.462857-4.388571 2.925715-5.851429 2.925714-4.388571 2.925714-1.462857 4.388571-4.388571 0-2.925714 0-1.462857-2.925714-2.925714-4.388571-1.462857-8.777143 0-13.165714 1.462857-1.462857-2.925714-4.388571-7.314286-7.314286-8.777143-2.925714-1.462857-10.24-2.925714-10.24 2.925714 0 4.388571 10.24 2.925714 14.628571 8.777143-2.925714 1.462857-8.777143 5.851429-11.702857 7.314286-5.851429 4.388571-19.017143 32.182857-19.017143 39.497143 0 30.72 10.24 21.942857 10.24 33.645714 0 2.925714-4.388571 7.314286-7.314285 7.314286 0-2.925714-2.925714-14.628571-4.388572-16.091429-1.462857-1.462857-4.388571-2.925714-5.851428-4.388571-1.462857-1.462857-4.388571-2.925714-7.314286-4.388572 0-10.24 2.925714-16.091429 4.388571-24.868571 1.462857-4.388571-1.462857-4.388571 2.925715-5.851429 0-10.24 0-8.777143 2.925714-19.017143 1.462857-2.925714 1.462857-5.851429 2.925714-8.777143 2.925714-4.388571 4.388571-1.462857 7.314286-5.851428-1.462857-7.314286-21.942857-1.462857-23.405714-1.462857-4.388571 0-4.388571-1.462857-7.314286-4.388572-2.925714-4.388571-10.24-7.314286-10.24 0 0 4.388571 10.24 2.925714 10.24 7.314286s-10.24 13.165714-11.702857 19.017143c-1.462857 4.388571-2.925714 7.314286-4.388572 10.24-8.777143 19.017143 8.777143 27.794286 8.777143 42.422857 0 2.925714-4.388571 2.925714-7.314286 2.925714-5.851429 0-1.462857-13.165714-8.777142-13.165714h-7.314286c0-4.388571 2.925714-14.628571 4.388571-19.017143 0-1.462857 1.462857-2.925714 1.462857-4.388571 2.925714-8.777143 0-4.388571 4.388572-7.314286 1.462857-1.462857 1.462857 0 1.462857-4.388571-1.462857 0-2.925714 0 0-5.851429l4.388571-13.165714c1.462857-4.388571 4.388571 0 4.388572-4.388572 0-5.851429-10.24-2.925714-16.091429-2.925714-4.388571 0-4.388571 0-5.851428-4.388571-1.462857-2.925714 0-1.462857-1.462857-2.925715-1.462857-2.925714-4.388571-1.462857-5.851429-1.462857 0 10.24 5.851429 4.388571 5.851429 10.24 0 2.925714-10.24 11.702857-11.702858 13.165714-8.777143 5.851429-8.777143 5.851429-11.702857 16.091429-1.462857 8.777143-1.462857 14.628571 1.462857 21.942857 2.925714 8.777143 10.24 8.777143 13.165715 13.165714H602.697143c-2.925714 2.925714-4.388571 5.851429-10.24-2.925714-10.24-13.165714 1.462857-23.405714 1.462857-35.108571 0-27.794286-7.314286-36.571429 7.314286-36.571429 4.388571 0 10.24 7.314286 10.24 1.462857 0-7.314286-7.314286-8.777143-13.165715-11.702857 1.462857-4.388571 7.314286-2.925714 7.314286-10.24 0-5.851429-5.851429-8.777143-10.24-8.777143-4.388571 0 5.851429 8.777143-1.462857 14.628572-2.925714 1.462857-4.388571 2.925714-5.851429 4.388571-13.165714 11.702857-7.314286 16.091429-7.314285 32.182857v17.554286c0 23.405714-10.24 24.868571 7.314285 49.737143 4.388571 5.851429 11.702857 13.165714 16.091429 19.017143 0 2.925714-1.462857 2.925714-1.462857 7.314285 4.388571 1.462857 4.388571 0 5.851428-4.388571 7.314286 4.388571 16.091429 10.24 24.868572 11.702857 2.925714 0 10.24 1.462857 11.702857 1.462857 0 4.388571-1.462857 4.388571-1.462857 7.314286l2.925714 1.462857c1.462857-1.462857 2.925714-4.388571 2.925714-7.314286h39.497143l-1.462857 5.851429c4.388571 0 5.851429-1.462857 5.851429-7.314286 7.314286 0 14.628571-4.388571 19.017143-7.314285 2.925714-1.462857 5.851429-2.925714 8.777142-5.851429 7.314286-5.851429 14.628571-13.165714 20.48-20.48 5.851429-10.24 8.777143-20.48 4.388572-30.72-1.462857-2.925714-1.462857-7.314286-2.925714-10.24-1.462857-7.314286-4.388571-16.091429-4.388572-23.405714 0-2.925714 1.462857-2.925714 1.462857-5.851429 5.851429 0 5.851429 5.851429 5.851429 11.702857v13.165715c7.314286-1.462857 5.851429-17.554286 5.851428-23.405715 1.462857-10.24 4.388571-14.628571-4.388571-27.794285-5.851429-8.777143-16.091429-19.017143-24.868571-26.331429-4.388571-2.925714-10.24-7.314286-17.554286-7.314286v-1.462857z m62.902857-14.628571c1.462857-1.462857 2.925714-2.925714 5.851429-4.388572-1.462857 1.462857-1.462857 1.462857-4.388572 2.925715l1.462857 1.462857v1.462857c1.462857 0 2.925714 1.462857 5.851429 1.462857l-5.851429 1.462857c0-2.925714-1.462857-2.925714-2.925714-4.388571z m8.777143 2.925714c2.925714-1.462857 2.925714-1.462857 4.388571 1.462857l-4.388571-1.462857z m-4.388572-2.925714z m1.462858-1.462857c1.462857 0 4.388571 0 0 0 1.462857 0 1.462857 0 0 0 1.462857 0-1.462857 1.462857 0 0z m-5.851429-1.462858c-1.462857-1.462857-1.462857 0-1.462857-2.925714-2.925714 0-7.314286 1.462857-8.777143 5.851429 1.462857 1.462857 2.925714 0 5.851429-1.462857 2.925714 4.388571 8.777143 8.777143 10.24 10.24 1.462857 4.388571 0 0 0 2.925714 0 1.462857 1.462857 2.925714 5.851428 2.925714 0-5.851429-4.388571-4.388571-5.851428-8.777143 4.388571 0 0 1.462857 4.388571 1.462857h5.851429c1.462857-1.462857 0-1.462857 1.462857-4.388571 5.851429 4.388571 16.091429 29.257143 19.017143 36.571429 16.091429 46.811429 8.777143 92.16-17.554286 131.657142-16.091429 23.405714-42.422857 45.348571-70.217143 54.125715C630.491429 678.546286 542.72 627.346286 522.24 543.963429c-8.777143-36.571429-1.462857-74.605714 13.165714-102.4 1.462857-4.388571 4.388571-7.314286 5.851429-10.24 17.554286-27.794286 36.571429-43.885714 65.828571-57.051429 4.388571-1.462857 7.314286-2.925714 10.24-4.388571C629.028571 365.494857 649.508571 361.106286 665.6 361.106286c32.182857 0 62.902857 11.702857 84.845714 27.794285l13.165715 10.24c5.851429 5.851429 8.777143 7.314286 13.165714 14.628572 2.925714 2.925714 7.314286 7.314286 7.314286 10.24-2.925714-1.462857-5.851429-2.925714-5.851429-7.314286H775.314286c1.462857-1.462857 1.462857-1.462857 1.462857-2.925714-4.388571 1.462857-5.851429 2.925714-8.777143 5.851428zM512 510.317714c0 84.845714 68.754286 155.062857 153.6 155.062857 103.862857 0 179.931429-102.4 144.822857-203.337142-10.24-30.72-30.72-58.514286-57.051428-77.531429-1.462857-1.462857-2.925714-2.925714-5.851429-4.388571l-19.017143-10.24c-17.554286-8.777143-42.422857-14.628571-62.902857-14.628572C580.754286 355.254857 512 425.472 512 510.317714z m46.811429-1.462857c0-16.091429 4.388571-33.645714 10.24-43.885714 2.925714-5.851429 5.851429-11.702857 10.24-17.554286 5.851429-8.777143 10.24-11.702857 17.554285-19.017143 27.794286-24.868571 76.068571-32.182857 111.177143-14.628571 8.777143 4.388571 17.554286 8.777143 24.868572 14.628571l14.628571 13.165715c5.851429 7.314286 11.702857 16.091429 14.628571 24.868571 10.24 20.48 11.702857 45.348571 7.314286 68.754286-1.462857 5.851429-4.388571 14.628571-7.314286 20.48-17.554286 38.034286-52.662857 62.902857-96.548571 62.902857-29.257143 0-51.2-10.24-71.68-27.794286-1.462857-1.462857-2.925714-1.462857-4.388571-2.925714l-11.702858-14.628572c-11.702857-19.017143-19.017143-40.96-19.017142-64.365714z m64.365714-102.4c-14.628571 7.314286-11.702857 4.388571-26.331429 16.091429-24.868571 17.554286-42.422857 52.662857-42.422857 83.382857 0 27.794286 5.851429 48.274286 20.48 68.754286 8.777143 11.702857 23.405714 24.868571 35.108572 32.182857 30.72 17.554286 67.291429 19.017143 100.937142 4.388571 36.571429-17.554286 65.828571-55.588571 65.828572-96.548571 0-20.48-1.462857-35.108571-10.24-52.662857-7.314286-13.165714-11.702857-20.48-21.942857-30.72-10.24-10.24-17.554286-14.628571-32.182857-21.942858-19.017143-8.777143-46.811429-13.165714-68.754286-7.314285-2.925714 0-5.851429 1.462857-8.777143 2.925714-4.388571-1.462857-7.314286 0-10.24 0l-1.462857-11.702857c0-1.462857-1.462857-2.925714-2.925714-4.388572-1.462857-5.851429 4.388571-5.851429-1.462858-10.24 0 10.24-1.462857 2.925714 1.462858 13.165715 1.462857 7.314286 0 8.777143 2.925714 14.628571zM551.497143 425.472c0 4.388571 11.702857 19.017143 19.017143 19.017143-1.462857-2.925714-10.24-10.24-14.628572-17.554286l2.925715-4.388571c4.388571-5.851429 4.388571-7.314286 11.702857-1.462857 1.462857 2.925714 2.925714 4.388571 5.851428 5.851428l-1.462857 5.851429c1.462857 0 2.925714 0 4.388572 1.462857 0-13.165714-13.165714-21.942857-16.091429-20.48-4.388571 0-2.925714 1.462857-4.388571 4.388571 0 2.925714-5.851429 5.851429-7.314286 7.314286z m100.937143 0c-1.462857 0-1.462857 0-4.388572-1.462857v-4.388572c4.388571-1.462857 4.388571-1.462857 7.314286 1.462858 0 1.462857-1.462857 4.388571-2.925714 4.388571z m-1.462857 2.925714c2.925714 0 2.925714-1.462857 5.851428-1.462857 0 1.462857 0 1.462857-1.462857 4.388572-8.777143 1.462857 0-2.925714-10.24 0 1.462857 7.314286 16.091429 2.925714 16.091429-4.388572 0-2.925714 0-5.851429-1.462858-8.777143-1.462857-1.462857-4.388571-2.925714-5.851428-2.925714-13.165714 0-13.165714 13.165714-2.925714 13.165714z m23.405714 1.462857c-5.851429 0-2.925714-11.702857 1.462857-11.702857 4.388571 0 2.925714 11.702857-1.462857 11.702857z m-1.462857 2.925715c7.314286 0 10.24 0 10.24-11.702857 0-10.24-19.017143-10.24-17.554286 4.388571 1.462857 4.388571 4.388571 7.314286 7.314286 7.314286zM624.64 377.197714c5.851429 0 1.462857-2.925714 7.314286-4.388571 0 1.462857-1.462857 4.388571-1.462857 7.314286-2.925714 0 0-1.462857-4.388572-1.462858 0 4.388571 1.462857 2.925714 1.462857 5.851429s-2.925714 1.462857-2.925714 7.314286c0 2.925714 0 0 1.462857 2.925714 7.314286-1.462857 1.462857-8.777143 7.314286-13.165714-1.462857 2.925714-2.925714 1.462857-1.462857 4.388571 5.851429-2.925714 0-5.851429 4.388571-8.777143 0 2.925714 1.462857 5.851429 4.388572 5.851429v-2.925714c-5.851429 0-2.925714-5.851429-2.925715-7.314286-2.925714 1.462857 0 2.925714-4.388571 4.388571 0-2.925714 1.462857-4.388571 2.925714-7.314285-4.388571-1.462857-2.925714 2.925714-4.388571-2.925715-4.388571 0-7.314286 5.851429-7.314286 10.24z m23.405714 2.925715c2.925714 0 2.925714-1.462857 4.388572-2.925715-2.925714-1.462857-1.462857 0-8.777143 0v-4.388571c-1.462857 0-1.462857 0-2.925714 1.462857-4.388571 5.851429 2.925714 5.851429 7.314285 5.851429z m96.548572 217.965714c1.462857 0 1.462857 0 0 0 1.462857 0 1.462857 0 0 0 7.314286-7.314286 13.165714 1.462857 5.851428 5.851428l-5.851428-5.851428z m-4.388572 4.388571c4.388571-1.462857 0-4.388571 7.314286 4.388572 8.777143 8.777143 7.314286 7.314286 7.314286 11.702857l7.314285-5.851429s-1.462857 1.462857-4.388571-1.462857c-5.851429-5.851429-2.925714-5.851429 1.462857-4.388571 2.925714 0 5.851429 1.462857 7.314286 1.462857l4.388571-4.388572c-10.24 1.462857-5.851429 0-13.165714 0 0-2.925714 2.925714-10.24-5.851429-10.24-4.388571-1.462857-11.702857 5.851429-11.702857 8.777143zM536.868571 549.814857c-7.314286 0-10.24-14.628571 7.314286-14.628571 8.777143 0 8.777143 14.628571-7.314286 14.628571z m1.462858 2.925714c11.702857 0 16.091429-11.702857 10.24-17.554285-10.24-10.24-26.331429 4.388571-17.554286 14.628571 1.462857 1.462857 5.851429 2.925714 7.314286 2.925714z m11.702857 24.868572l5.851428-11.702857c1.462857-4.388571 2.925714-5.851429 1.462857-8.777143-1.462857-2.925714 0-1.462857-2.925714-1.462857 2.925714 5.851429-2.925714 7.314286-7.314286 8.777143-10.24 4.388571-7.314286 4.388571-10.24 1.462857 1.462857 2.925714 2.925714 4.388571 2.925715 7.314285v-1.462857c1.462857-1.462857 0 0 0-1.462857s2.925714-1.462857 2.925714-2.925714l8.777143-4.388572c-1.462857 2.925714-2.925714 5.851429-4.388572 10.24-1.462857 2.925714-4.388571 7.314286-4.388571 10.24 1.462857 0 7.314286-2.925714 8.777143-4.388571l11.702857-5.851429c2.925714 1.462857 0 1.462857 2.925714 2.925715-1.462857-2.925714-2.925714-5.851429-4.388571-7.314286 1.462857 4.388571 0 4.388571-4.388572 5.851429l-7.314285 2.925714z m105.325714 55.588571v14.628572l-2.925714 1.462857c2.925714 0 2.925714 1.462857 7.314285 1.462857-1.462857-2.925714 1.462857-1.462857-2.925714-1.462857v-14.628572c1.462857 1.462857 5.851429 5.851429 7.314286 8.777143 1.462857 2.925714 5.851429 7.314286 7.314286 8.777143v-19.017143c0-2.925714 0-1.462857 1.462857-2.925714h1.462857c-2.925714 0-2.925714-1.462857-7.314286-1.462857l1.462857 1.462857 1.462857 1.462857c1.462857 2.925714 0 5.851429 0 13.165714-2.925714-1.462857-8.777143-13.165714-10.24-14.628571-1.462857-1.462857-4.388571-1.462857-7.314285-1.462857l1.462857 1.462857c1.462857-1.462857 1.462857-1.462857 1.462857 2.925714zM555.885714 593.700571c0 7.314286 5.851429 11.702857 10.24 13.165715 4.388571-2.925714 4.388571-5.851429 8.777143-4.388572-1.462857-2.925714-2.925714-4.388571-5.851428-7.314285 0 2.925714 1.462857 2.925714-1.462858 4.388571l-4.388571 2.925714c-4.388571-2.925714-5.851429-1.462857-5.851429-8.777143 1.462857-5.851429 13.165714-10.24 17.554286-5.851428 2.925714 2.925714 1.462857 7.314286 1.462857 10.24l5.851429-4.388572c-5.851429-1.462857 0 0-5.851429-5.851428-7.314286-8.777143-20.48-4.388571-20.48 5.851428zM708.022857 384.512c-2.925714-1.462857-8.777143-4.388571-8.777143 1.462857l5.851429 1.462857c-1.462857 1.462857-2.925714 2.925714-5.851429 4.388572-7.314286 5.851429-1.462857 5.851429 4.388572 2.925714 2.925714-1.462857 2.925714-2.925714 5.851428-4.388571 4.388571 2.925714 7.314286 2.925714 7.314286-1.462858l-5.851429-1.462857c0-5.851429 5.851429-5.851429 7.314286-10.24-4.388571 0-7.314286 2.925714-10.24 7.314286z m11.702857 229.668571v1.462858c4.388571-1.462857 2.925714 0 11.702857 11.702857 1.462857 2.925714 2.925714 2.925714 0 5.851428 2.925714 0 10.24-5.851429 14.628572-8.777143 0-2.925714-1.462857-2.925714-1.462857-5.851428-1.462857 1.462857 0 2.925714-2.925715 5.851428-1.462857 1.462857-4.388571 2.925714-5.851428 2.925715-2.925714-4.388571-4.388571-4.388571-4.388572-8.777143 4.388571-1.462857 2.925714-4.388571 8.777143-1.462857-1.462857-4.388571-1.462857-2.925714-2.925714-7.314286h-1.462857c0 2.925714 1.462857 2.925714-1.462857 4.388571-1.462857 1.462857-2.925714 1.462857-4.388572 2.925715-1.462857-1.462857-2.925714-4.388571-4.388571-7.314286 4.388571-1.462857 4.388571-4.388571 10.24-2.925714 0-2.925714-1.462857-1.462857-1.462857-4.388572-4.388571 4.388571-10.24 10.24-14.628572 11.702857z m16.091429-4.388571z m24.868571-29.257143c0 11.702857 13.165714 2.925714 16.091429 2.925714 5.851429 0 4.388571 10.24-5.851429 7.314286 1.462857 1.462857 4.388571 4.388571 5.851429 4.388572 0-4.388571 5.851429-4.388571 5.851428-10.24 0-11.702857-14.628571-2.925714-19.017142-2.925715-2.925714 0-2.925714-7.314286 2.925714-7.314285 2.925714 0 1.462857 0 4.388571 1.462857-1.462857-1.462857-4.388571-4.388571-5.851428-4.388572 0 1.462857 1.462857 0-2.925715 2.925715-1.462857 2.925714-1.462857 2.925714-1.462857 5.851428z m-131.657143 43.885714c-1.462857 4.388571-2.925714 8.777143-2.925714 13.165715 0 5.851429 4.388571 8.777143 10.24 8.777143 4.388571 0 5.851429-4.388571 7.314286-8.777143 2.925714-10.24 1.462857-10.24 5.851428-10.24-1.462857-2.925714-4.388571-1.462857-7.314285-2.925715 1.462857 2.925714 0 0 2.925714 2.925715-4.388571 8.777143 0 16.091429-10.24 16.091428-7.314286 0-4.388571-7.314286-2.925714-13.165714 1.462857-5.851429 0-4.388571 4.388571-7.314286-2.925714 0-4.388571-1.462857-8.777143-1.462857 1.462857 2.925714 0 1.462857 1.462857 2.925714z m5.851429 0z m54.125714-203.337142c4.388571 1.462857 5.851429 2.925714 10.24 4.388571l-1.462857 1.462857c-4.388571 1.462857-8.777143 4.388571-10.24 10.24l5.851429 1.462857c1.462857-8.777143 11.702857-8.777143 14.628571-13.165714-1.462857-1.462857-5.851429-2.925714-7.314286-4.388571-2.925714-1.462857-5.851429-2.925714-8.777142-2.925715l-2.925715 2.925715z m20.48 198.948571c5.851429 0 2.925714 1.462857 2.925715 16.091429-4.388571-2.925714-5.851429-7.314286-10.24-10.24 0-2.925714 0 0 1.462857-4.388572-1.462857 0-5.851429 2.925714-8.777143 2.925714l4.388571 4.388572c2.925714 2.925714 10.24 13.165714 13.165715 13.165714l1.462857-19.017143c0-4.388571 0-2.925714 1.462857-5.851428-1.462857 0-4.388571 1.462857-5.851429 2.925714zM541.257143 507.392c4.388571 0 4.388571 1.462857 4.388571 5.851429l-17.554285 1.462857-4.388572-2.925715v7.314286c0 2.925714 1.462857 4.388571 1.462857 0 5.851429 0 11.702857-1.462857 19.017143-1.462857l1.462857 4.388571-4.388571 2.925715c5.851429 0 7.314286 1.462857 4.388571-16.091429 0-4.388571-1.462857-2.925714-5.851428-2.925714v1.462857z m235.52 42.422857c1.462857 1.462857 2.925714 1.462857 5.851428 1.462857-2.925714-2.925714-2.925714 0-2.925714-7.314285l16.091429 2.925714c2.925714 1.462857 2.925714 0 2.925714 4.388571 2.925714-1.462857 1.462857-1.462857 2.925714-8.777143-1.462857 1.462857-1.462857 0-1.462857 2.925715-4.388571 0-13.165714-4.388571-19.017143-4.388572 1.462857-8.777143 4.388571-2.925714 5.851429-7.314285-1.462857 0-2.925714-1.462857-5.851429-1.462858l-4.388571 17.554286z m7.314286-36.571428s0-1.462857 2.925714-2.925715c1.462857 1.462857 5.851429 4.388571 7.314286 5.851429-1.462857 1.462857-1.462857 1.462857-4.388572 2.925714-1.462857 1.462857-2.925714 1.462857-5.851428 1.462857 0-4.388571 0-1.462857-1.462858-2.925714 0 4.388571 0 5.851429-1.462857 8.777143 2.925714-1.462857 1.462857-1.462857 4.388572-2.925714 11.702857-7.314286 7.314286-4.388571 16.091428-4.388572l1.462857 2.925714c1.462857-2.925714 1.462857-5.851429 1.462858-10.24 0 2.925714-2.925714 2.925714-7.314286 2.925715-1.462857 0-8.777143-4.388571-11.702857-8.777143-1.462857-1.462857 0-2.925714-1.462857-1.462857-1.462857 2.925714 0 7.314286 0 8.777143zM762.148571 426.934857c0 4.388571 0 0 4.388572 5.851429-4.388571 1.462857 0 0-8.777143-4.388572 0 4.388571 2.925714 4.388571 5.851429 7.314286-2.925714 1.462857-5.851429 2.925714-7.314286-1.462857h-1.462857c-1.462857 2.925714-2.925714 4.388571 1.462857 5.851428 4.388571 1.462857 4.388571 0 8.777143-1.462857 2.925714 1.462857 1.462857 1.462857 4.388571 2.925715 0-4.388571 0-1.462857-1.462857-2.925715v-2.925714c2.925714 0 4.388571 1.462857 4.388571-1.462857 1.462857-1.462857 0-1.462857-1.462857-2.925714-2.925714-1.462857-7.314286-7.314286-8.777143-4.388572z m-137.508571 1.462857c0 1.462857 0 1.462857 1.462857 4.388572 2.925714-2.925714 1.462857-2.925714 4.388572-4.388572 1.462857 4.388571 2.925714 7.314286 4.388571 11.702857 1.462857 0 2.925714-1.462857 5.851429-2.925714-1.462857-2.925714-7.314286-14.628571-7.314286-16.091428-8.777143 1.462857-1.462857 2.925714-8.777143 7.314285z m-33.645714 175.542857c-2.925714 1.462857-4.388571 4.388571-5.851429 7.314286-2.925714 4.388571-4.388571 5.851429-7.314286 7.314286 0-2.925714 0-2.925714-1.462857-4.388572-2.925714 0-1.462857 0-2.925714 2.925715 1.462857 5.851429 7.314286 5.851429 11.702857-1.462857l7.314286-8.777143h2.925714c-1.462857-1.462857-5.851429-4.388571-7.314286-5.851429 1.462857 1.462857 1.462857 0 2.925715 2.925714z m89.234285 21.942858v1.462857c4.388571 0 2.925714 0 4.388572 7.314285 0 2.925714 1.462857 7.314286 1.462857 10.24-1.462857 2.925714-1.462857 0-2.925714 2.925715 1.462857-1.462857 2.925714 0 4.388571-1.462857 4.388571 0 2.925714 0 4.388572-1.462858-2.925714 0-2.925714 0-4.388572-7.314285 0-2.925714-1.462857-7.314286-1.462857-10.24 1.462857-2.925714 1.462857 0 2.925714-2.925715-1.462857 1.462857-7.314286 1.462857-8.777143 1.462858z m93.622858-68.754286c0-1.462857 0-1.462857 0 0z m0 0c0 2.925714-2.925714 5.851429-4.388572 8.777143 2.925714-1.462857 0 0 2.925714-2.925715l8.777143 4.388572c7.314286 2.925714 7.314286 2.925714 7.314286 7.314286 1.462857-1.462857 4.388571-5.851429 4.388571-8.777143-2.925714 2.925714-2.925714 1.462857-11.702857-2.925715-1.462857-1.462857-2.925714-1.462857-4.388571-1.462857l-2.925714-4.388571zM639.268571 388.900571c-2.925714-4.388571-1.462857 0-5.851428 1.462858 0-2.925714 0-1.462857-2.925714-2.925715v7.314286c2.925714 2.925714 2.925714 2.925714 4.388571 2.925714 0-4.388571 0-2.925714-1.462857-7.314285h2.925714c0 2.925714-1.462857 1.462857 1.462857 2.925714 2.925714-4.388571 0-4.388571 4.388572-7.314286 2.925714 4.388571 1.462857 8.777143 1.462857 11.702857h1.462857c0-1.462857 2.925714-14.628571-2.925714-14.628571-2.925714 0-2.925714 2.925714-2.925715 5.851428zM601.234286 609.792z m-7.314286 17.554286c-4.388571 0-2.925714-1.462857-4.388571 1.462857 2.925714 0 5.851429 2.925714 8.777142 4.388571-1.462857-4.388571-2.925714-1.462857 2.925715-10.24s2.925714-8.777143 7.314285-7.314285c-1.462857-2.925714-4.388571-4.388571-7.314285-4.388572 2.925714 4.388571-5.851429 8.777143-7.314286 16.091429zM563.2 432.786286c0 2.925714 2.925714 2.925714 4.388571 4.388571 2.925714-4.388571 0-1.462857 2.925715-5.851428 1.462857-1.462857 1.462857 1.462857 1.462857-2.925715 0-1.462857-1.462857-1.462857-4.388572 0-1.462857 0-4.388571 1.462857-4.388571 4.388572zM708.022857 397.677714c0 2.925714 0 2.925714 2.925714 5.851429 1.462857 0 2.925714-1.462857 2.925715-2.925714s0-5.851429-4.388572-5.851429c-1.462857 1.462857-1.462857 1.462857-1.462857 2.925714zM560.274286 428.397714c2.925714-1.462857 5.851429-1.462857 2.925714-4.388571-2.925714 0-2.925714 1.462857-2.925714 4.388571z m61.44-49.737143c0-2.925714-1.462857-2.925714-4.388572-4.388571 1.462857 4.388571 1.462857 4.388571 4.388572 4.388571z" fill="#1296db" p-id="2023"></path><path d="M1088.365714 400.822857c-7.314286 0-21.942857 13.165714-26.331428 13.165714-4.388571 0-62.902857-4.388571-68.754286-4.388571-5.851429 0-4.388571-8.777143-14.628571-5.851429-23.405714 5.851429-23.405714 61.44-23.405715 61.44s-2.925714 99.474286-1.462857 130.194286 14.628571 32.182857 16.091429 32.182857c1.462857 0 4.388571-2.925714 4.388571-11.702857 0-8.777143 7.314286-138.971429 8.777143-156.525714 1.462857-17.554286 21.942857-20.48 40.96-20.48 19.017143 1.462857 21.942857-11.702857 48.274286-5.851429 27.794286 5.851429 24.868571 40.96 24.868571 40.96s1.462857 74.605714 0 87.771429c-1.462857 14.628571-13.165714 16.091429-21.942857 14.628571-8.777143-1.462857-7.314286 2.925714-7.314286 2.925715s-1.462857 42.422857 14.628572 40.96c24.868571-2.925714 42.422857-100.937143 42.422857-100.937143s2.925714-38.034286-4.388572-74.605715c-7.314286-36.571429-24.868571-43.885714-32.182857-43.885714" fill="#1296db" p-id="2024"></path><path d="M1048.868571 478.354286c1.462857-11.702857-11.702857-14.628571-21.942857-14.628572-14.628571 0-17.554286 5.851429-19.017143 11.702857-1.462857 5.851429 11.702857 14.628571 21.942858 14.628572 10.24-1.462857 17.554286 0 19.017142-11.702857M1067.885714 532.48c-7.314286 0-17.554286-10.24-21.942857-14.628571-4.388571-4.388571-13.165714-5.851429-19.017143-5.851429-7.314286 1.462857-21.942857 0-24.868571 1.462857 0 0-7.314286 4.388571-7.314286 21.942857s17.554286 27.794286 21.942857 29.257143c4.388571 1.462857 10.24-4.388571 10.24-8.777143s0-11.702857 5.851429-10.24c5.851429 2.925714-2.925714 14.628571 14.628571 14.628572 19.017143-1.462857 26.331429-27.794286 20.48-27.794286M1301.942857 425.691429s5.851429 10.24 5.851429-11.702858-13.165714-24.868571-16.091429-26.331428c-5.851429-1.462857-10.24 5.851429-11.702857 17.554286 0 13.165714 21.942857 20.48 21.942857 20.48M1278.537143 425.691429c-5.851429 11.702857-2.925714 13.165714-4.388572 21.942857-2.925714 7.314286-7.314286 14.628571-10.24 19.017143-4.388571 2.925714 4.388571 5.851429 4.388572 5.851428s8.777143 1.462857 21.942857-19.017143-8.777143-32.182857-11.702857-27.794285M1262.445714 473.965714c-8.777143 1.462857-5.851429 40.96-10.24 61.44-4.388571 20.48-16.091429 45.348571-20.48 61.44-4.388571 16.091429-2.925714 43.885714 14.628572 43.885715 16.091429 0 14.628571-55.588571 14.628571-65.828572 0-10.24 8.777143-27.794286 13.165714-35.108571 4.388571-5.851429-2.925714-30.72-2.925714-39.497143-1.462857-8.777143-2.925714-26.331429-8.777143-26.331429M1369.234286 479.817143s13.165714-13.165714 13.165714-5.851429-11.702857 17.554286-17.554286 23.405715c-5.851429 5.851429-7.314286 14.628571 10.24 13.165714 17.554286-2.925714 23.405714-45.348571 26.331429-51.2 2.925714-4.388571 14.628571-5.851429 14.628571-5.851429s1.462857 21.942857 0 35.108572c-1.462857 13.165714 11.702857 26.331429 11.702857 26.331428s5.851429 1.462857 10.24 0c5.851429 0 7.314286-13.165714 7.314286-20.48-1.462857-7.314286-8.777143-5.851429-13.165714-10.24s-1.462857-16.091429-1.462857-24.868571 16.091429-13.165714 21.942857-17.554286c5.851429-4.388571 0-10.24-1.462857-10.24s-39.497143 16.091429-46.811429 19.017143c-7.314286 2.925714-7.314286-2.925714-7.314286-8.777143 0-4.388571 36.571429-30.72 36.571429-36.571428 0-4.388571-21.942857-7.314286-24.868571-10.24-2.925714-2.925714 4.388571-21.942857-5.851429-26.331429-11.702857-5.851429-23.405714 0-23.405714 0s-40.96 43.885714-43.885715 52.662857c-2.925714 8.777143 7.314286 5.851429 13.165715 7.314286 5.851429 1.462857 32.182857-14.628571 39.497143-17.554286 8.777143-2.925714 13.165714 1.462857 11.702857 5.851429-2.925714 4.388571-16.091429 27.794286-23.405715 32.182857-7.314286 4.388571-7.314286 19.017143-7.314285 19.017143s-7.314286 7.314286-13.165715 1.462857c-4.388571-5.851429 4.388571-35.108571-17.554285-26.331429-21.942857 8.777143 4.388571 21.942857-2.925715 38.034286-7.314286 14.628571-33.645714 21.942857-38.034285 30.72-17.554286 32.182857-5.851429 43.885714 7.314285 43.885714 14.628571 1.462857 35.108571-32.182857 39.497143-46.811428 7.314286-14.628571 24.868571-29.257143 24.868572-29.257143" fill="#1296db" p-id="2025"></path><path d="M1433.6 522.24c-13.165714-1.462857-27.794286 38.034286-32.182857 38.034286-4.388571 1.462857-1.462857-21.942857-5.851429-24.868572-4.388571-2.925714-29.257143 16.091429-32.182857 13.165715-2.925714-2.925714 4.388571-26.331429-1.462857-26.331429-26.331429 1.462857-29.257143 71.68-27.794286 87.771429 1.462857 16.091429 20.48 8.777143 19.017143 4.388571 0-4.388571 5.851429-51.2 14.628572-51.2 8.777143-1.462857 5.851429 32.182857 5.851428 32.182857l17.554286 1.462857s21.942857-55.588571 39.497143-45.348571c17.554286 10.24-8.777143 67.291429-14.628572 73.142857-5.851429 5.851429-1.462857 8.777143-1.462857 13.165714 1.462857 2.925714 13.165714-1.462857 13.165714-1.462857s23.405714-42.422857 29.257143-71.68c5.851429-29.257143-8.777143-42.422857-23.405714-42.422857M1778.834286 504.685714c1.462857-10.24 1.462857-17.554286 1.462857-17.554285h-20.48s4.388571 4.388571-1.462857 4.388571-32.182857 1.462857-32.182857 1.462857-4.388571-8.777143-1.462858-23.405714c4.388571-14.628571 16.091429-43.885714 17.554286-45.348572s4.388571-26.331429-1.462857-29.257142c-5.851429-4.388571-26.331429 4.388571-36.571429 38.034285-10.24 33.645714-8.777143 52.662857-10.24 55.588572s-7.314286 5.851429-16.091428 4.388571c-8.777143-1.462857-52.662857 0-51.2 29.257143 0 10.24 10.24 14.628571 21.942857 11.702857 10.24-4.388571 35.108571-14.628571 33.645714-7.314286-2.925714 7.314286-23.405714 59.977143-30.72 68.754286v23.405714h14.628572s5.851429-13.165714 11.702857-19.017142c7.314286-5.851429 23.405714-14.628571 32.182857-45.348572 7.314286-30.72 10.24-33.645714 11.702857-33.645714h46.811429s8.777143-5.851429 10.24-16.091429M1753.965714 550.034286c-14.628571 2.925714-11.702857 17.554286-8.777143 27.794285 2.925714 11.702857 43.885714 32.182857 48.274286 27.794286 4.388571-2.925714 1.462857-32.182857 0-36.571428s-32.182857-20.48-39.497143-19.017143M2023.131429 462.262857c-1.462857 1.462857-20.48 10.24-36.571429 5.851429s-14.628571-1.462857-16.091429-4.388572c-1.462857-2.925714 1.462857-51.2 4.388572-55.588571 2.925714-2.925714 7.314286-10.24 7.314286-2.925714 0 7.314286-2.925714 35.108571-2.925715 38.034285 0 2.925714 0 7.314286 5.851429 7.314286s10.24-13.165714 13.165714-24.868571c1.462857-11.702857 5.851429-21.942857 14.628572-19.017143 1.462857 0-1.462857 7.314286-4.388572 11.702857-2.925714 4.388571-10.24 21.942857-7.314286 29.257143 4.388571 7.314286 5.851429 8.777143 13.165715 2.925714 7.314286-5.851429 20.48-19.017143 21.942857-26.331429 1.462857-7.314286 1.462857-21.942857 2.925714-23.405714 1.462857-1.462857 16.091429-10.24 20.48-5.851428 4.388571 4.388571 8.777143 5.851429 0 10.24-8.777143 2.925714-13.165714 0-13.165714 5.851428-1.462857 5.851429-7.314286 23.405714-11.702857 30.72-1.462857 8.777143-10.24 19.017143-11.702857 20.48m78.994285-7.314286c-14.628571-5.851429-35.108571 4.388571-35.108571 4.388572s-26.331429 2.925714-27.794286-1.462857c-1.462857-4.388571 13.165714-14.628571 13.165714-14.628572l17.554286-1.462857s11.702857-19.017143 19.017143-35.108571c7.314286-16.091429 5.851429-30.72-11.702857-35.108572-17.554286-4.388571-40.96 19.017143-40.96 19.017143s-4.388571-11.702857-14.628572-10.24c-5.851429 1.462857-8.777143 7.314286-8.777142 7.314286s-4.388571-1.462857-8.777143-1.462857-2.925714-7.314286-10.24-8.777143c-7.314286-1.462857-11.702857 19.017143-11.702857 19.017143s-1.462857-1.462857-2.925715-5.851429c-1.462857-4.388571-4.388571-13.165714-8.777143-14.628571-4.388571-1.462857-10.24 5.851429-13.165714 10.24-2.925714 4.388571 4.388571 68.754286 1.462857 70.217143-2.925714 1.462857-14.628571-4.388571-21.942857-5.851429-8.777143-2.925714-10.24 5.851429-10.24 5.851429l-2.925714 67.291428h13.165714c8.777143 0 13.165714-24.868571 14.628572-30.72 1.462857-7.314286 19.017143-5.851429 42.422857-5.851428 23.405714 1.462857 51.2-10.24 59.977143-11.702858 8.777143-1.462857 21.942857 2.925714 26.331428 2.925715 2.925714 1.462857 0 13.165714-1.462857 14.628571 0 1.462857 19.017143 0 19.017143 0s19.017143-10.24 21.942857-20.48c0-8.777143-4.388571-11.702857-17.554286-17.554286" fill="#1296db" p-id="2026"></path><path d="M2077.257143 554.422857c-8.777143 0-23.405714 2.925714-27.794286-1.462857-4.388571-4.388571-7.314286-10.24-1.462857-14.628571 5.851429-4.388571 16.091429-5.851429 17.554286-20.48 1.462857-14.628571-16.091429-17.554286-16.091429-17.554286s-70.217143 5.851429-73.142857 20.48c-1.462857 4.388571-4.388571 20.48 7.314286 19.017143 11.702857-1.462857 32.182857-13.165714 39.497143-10.24 5.851429 2.925714 10.24 27.794286-14.628572 27.794285-33.645714 1.462857-46.811429 7.314286-46.811428 19.017143-1.462857 11.702857 24.868571 8.777143 27.794285 7.314286 2.925714-1.462857 23.405714-13.165714 35.108572-8.777143 7.314286 2.925714 5.851429 5.851429 4.388571 16.091429-1.462857 11.702857-10.24 32.182857-21.942857 32.182857-13.165714 1.462857-27.794286 0-27.794286 0s2.925714 26.331429 13.165715 27.794286c10.24 2.925714 27.794286-7.314286 36.571428-17.554286 8.777143-10.24 16.091429-17.554286 17.554286-24.868572 1.462857-7.314286-1.462857-30.72 5.851428-33.645714 7.314286-2.925714 27.794286-1.462857 27.794286-1.462857s7.314286-2.925714 7.314286-11.702857c0-5.851429-1.462857-7.314286-10.24-7.314286" fill="#1296db" p-id="2027"></path></svg>